HIERARCHY
ROOT pelvis
{
  OFFSET 0 100 0
  CHANNELS 6 Xposition Yposition Zposition Zrotation Xrotation Yrotation
  JOINT pelvis_right_femur
  {
    OFFSET -10.78128 -3.44521 -0.5502486
    CHANNELS 3 Zrotation Xrotation Yrotation
    JOINT right_femur_tibia
    {
      OFFSET -0.8047443 -44.0398 -0.1307829
      CHANNELS 3 Zrotation Xrotation Yrotation
      JOINT right_tibia_foot
      {
        OFFSET 3.006224 -47.83518 -5
        CHANNELS 3 Zrotation Xrotation Yrotation
        End Site
        {
          OFFSET 0 -5 15
        }
      }
    }
  }
  JOINT pelvis_left_femur
  {
    OFFSET 10.78128 -3.44521 -0.5502486
    CHANNELS 3 Zrotation Xrotation Yrotation
    JOINT left_femur_tibia
    {
      OFFSET 0.8047443 -44.0398 -0.1307829
      CHANNELS 3 Zrotation Xrotation Yrotation
      JOINT left_tibia_foot
      {
        OFFSET -4.370144 -48.10324 -4.275266
        CHANNELS 3 Zrotation Xrotation Yrotation
        End Site
        {
          OFFSET 0 -5 15
        }
      }
    }
  }
  JOINT pelvis_spine1
  {
    OFFSET 0 6.468898 -3.129235
    CHANNELS 3 Zrotation Xrotation Yrotation
    JOINT spine1
    {
      OFFSET 0 23.15396 4.99043
      CHANNELS 3 Zrotation Xrotation Yrotation
      JOINT spine2
      {
        OFFSET 0 20.79997 -5.064912
        CHANNELS 3 Zrotation Xrotation Yrotation
        JOINT neck
        {
          OFFSET 0 14.38658 9.616178
          CHANNELS 3 Zrotation Xrotation Yrotation
          End Site
          {
            OFFSET 0 20 0
          }
        }
      }
      JOINT right_manubrium
      {
        OFFSET -5.722621 16.35077 3.967754
        CHANNELS 3 Zrotation Xrotation Yrotation
        JOINT right_clavicle
        {
          OFFSET -13.16364 1.694482 -4.693211
          CHANNELS 3 Zrotation Xrotation Yrotation
          JOINT right_humerus
          {
            OFFSET -28.5034 -0.3100689 -2.792744
            CHANNELS 3 Zrotation Xrotation Yrotation
            JOINT right_radius
            {
              OFFSET -25.15693 0.02248979 -1.271978
              CHANNELS 3 Zrotation Xrotation Yrotation
              End Site
              {
                OFFSET -15 0 0
              }
            }
          }
        }
      }
      JOINT left_manubrium
      {
        OFFSET 5.722621 16.35077 3.967754
        CHANNELS 3 Zrotation Xrotation Yrotation
        JOINT left_clavicle
        {
          OFFSET 13.16364 1.694482 -4.693211
          CHANNELS 3 Zrotation Xrotation Yrotation
          JOINT left_humerus
          {
            OFFSET 29.39168 -1.063119 -2.237045
            CHANNELS 3 Zrotation Xrotation Yrotation
            JOINT left_radius
            {
              OFFSET 24.59957 -0.9528479 0.9047498
              CHANNELS 3 Zrotation Xrotation Yrotation
              End Site
              {
                OFFSET 15 -0 -0
              }
            }
          }
        }
      }
    }
  }
}
MOTION
Frames: 15
Frame Time: 0.0416666666667
0 103.5113 0 1.267931 -1.421358 -0.1282994 3.586091 -14.5743 10.75441 -0 39.88974 -0 -5.165843 -18.83222 -4.114566 -7.124593 10.40425 -24.16 -0 7.113776 -0 10.71978 -14.63688 28.32599 -4.025529 -3.999274 4.54169 2.637105 9.623184 -7.597308 1.373273 22.37735 6.554375 2.790235 -24.10463 9.360002 6.742154 -19.98426 11.87985 85.13009 36.18227 -18.54114 -0 0 16.61333 -6.607 8.058262 4.357755 4.718252 -18.28934 -2.171126 -93.98495 27.17223 22.43491 0 0 -15.04898 7.185679 16.5911 5.561437
0.2438008 103.5056 1.405867 1.052536 -1.178122 -0.2175189 3.87702 -16.13877 10.48102 -0 39.38575 -0 -5.316069 -17.42053 -3.879621 -7.035345 10.37616 -23.72906 -0 7.124573 -0 10.19874 -15.4331 27.76053 -3.845516 -3.669254 4.569798 2.565759 9.656844 -7.550998 1.446437 22.17884 6.621582 2.901399 -24.32962 9.44466 6.619209 -19.93952 11.81211 85.2507 35.87566 -18.58209 -0 0 16.61412 -6.671911 8.107141 4.349942 4.987237 -18.59918 -2.10247 -93.92537 27.04463 22.40229 0 0 -15.39869 7.49976 16.45449 5.462934
0.5195627 103.4019 3.199262 0.5837708 -0.8964015 -0.1214195 4.376764 -19.40567 9.488908 -0 37.97499 -0 -5.876886 -13.73609 -3.353609 -6.801701 10.48798 -22.53549 -0 7.377178 -0 8.57621 -17.35721 26.28101 -3.408258 -2.831197 4.505485 2.342146 9.677713 -7.365928 1.641921 21.89328 6.738901 3.134136 -24.71831 9.601381 6.033932 -19.72018 11.54667 85.78201 34.63309 -18.67407 -0 0 16.25502 -7.063492 7.98579 4.435529 5.629459 -19.32853 -2.026402 -93.64671 26.88907 21.9402 0 0 -16.16803 8.028299 16.16696 5.361251
0.813372 103.1658 5.230232 0.1278984 0.01871589 0.08962734 5.20651 -22.96262 9.139454 -0 35.18338 -0 -5.943524 -12.2234 -2.970998 -6.558918 10.83411 -21.73258 -0 6.788123 -0 7.706354 -18.9341 25.16462 -3.080117 -2.351965 4.529162 2.409703 9.561651 -7.476128 1.690581 21.42134 6.889175 3.289655 -25.26841 9.750663 5.880493 -19.58714 11.43087 85.96807 34.44854 -19.07932 -0 0 16.13813 -6.810497 8.086223 4.253693 6.208288 -19.98073 -1.739608 -93.39369 26.78815 21.62757 0 0 -17.5321 8.561602 15.88287 5.114824
1.115044 102.7676 7.523061 -0.332811 1.159216 0.4121614 6.096507 -26.59959 8.782924 -0 31.56357 -0 -5.970088 -10.93965 -2.552607 -6.32211 11.34261 -20.90136 -0 6.133248 -0 6.83739 -20.47599 23.95707 -2.782671 -1.981249 4.532079 2.558641 9.390188 -7.684657 1.671057 20.91505 7.085031 3.468024 -25.88265 9.863531 5.781255 -19.40357 11.33688 86.18999 34.55845 -19.70895 -0 0 15.83264 -6.52711 8.202843 4.060234 6.809898 -20.70515 -1.406998 -93.05311 26.75806 21.19434 0 0 -19.27214 9.001527 15.59067 4.906063
1.414024 102.2129 10.11437 -0.7871433 2.417587 0.8324321 6.958822 -29.97669 8.391109 -0 27.46246 -0 -6.038299 -9.751969 -2.113622 -6.107023 11.97019 -20.07016 -0 5.712766 -0 5.828276 -21.89103 22.62403 -2.50706 -1.726114 4.50189 2.747228 9.164474 -7.952963 1.59832 20.42668 7.314627 3.675633 -26.51399 9.929441 5.701753 -19.15038 11.24097 86.48808 34.8824 -20.53804 -0 0 15.30898 -6.267059 8.290703 3.876158 7.389322 -21.44694 -1.060399 -92.70137 26.91922 20.7166 0 0 -21.22391 9.182723 15.33631 4.935987
1.700744 101.5245 13.06571 -1.236177 3.635703 1.330983 7.692741 -32.79586 7.884967 -0 23.23687 -0 -6.257777 -8.536904 -1.67598 -5.904993 12.67408 -19.22768 -0 5.882045 -0 4.521546 -23.0554 21.10193 -2.219135 -1.556176 4.409644 2.923872 8.88295 -8.221752 1.501616 20.02357 7.55266 3.901711 -27.08648 9.949028 5.571894 -18.79138 11.10206 86.90072 35.24723 -21.47835 -0 0 14.53028 -6.09987 8.299883 3.728391 7.907869 -22.13802 -0.7408846 -92.35696 27.2924 20.17183 0 0 -23.13805 9.071785 15.14146 5.239952
1.968592 100.7447 16.45037 -1.675974 4.663267 1.877749 8.219668 -34.78022 7.236553 -0 19.26821 -0 -6.689182 -7.35064 -1.282476 -5.697582 13.39802 -18.38242 -0 6.974502 -0 2.869461 -23.76908 19.38284 -1.888098 -1.448302 4.234353 3.054034 8.550162 -8.443662 1.404827 19.76105 7.768498 4.118213 -27.51428 9.927127 5.362534 -18.30088 10.89527 87.41364 35.53951 -22.40873 -0 0 13.50667 -6.057325 8.2239 3.631839 8.312338 -22.69019 -0.4832455 -92.01462 27.81147 19.52502 0 0 -24.72807 8.731104 15.00067 5.729148
2.214462 99.93516 20.34903 -2.088002 5.334809 2.428558 8.484196 -35.67171 6.435508 -0 15.92664 -0 -7.34381 -6.307823 -0.9901413 -5.462326 14.07717 -17.5186 -0 9.334008 -0 0.9310469 -23.78686 17.51984 -1.493239 -1.377752 3.960133 3.116624 8.189182 -8.58054 1.325679 19.68792 7.925139 4.281906 -27.69918 9.863131 5.060215 -17.66165 10.61429 87.99563 35.65545 -23.19035 -0 0 12.25364 -6.181663 8.091598 3.608782 8.542667 -23.02128 -0.3272589 -91.61823 28.30493 18.69221 0 0 -25.71059 8.314037 14.87287 6.189402
2.438399 99.18548 24.83848 -2.434051 5.487677 2.922993 8.487651 -35.23546 5.525952 -0 13.55063 -0 -8.16362 -5.54949 -0.869422 -5.183107 14.6196 -16.5972 -0 13.31889 -0 -1.114902 -22.85658 15.6495 -1.033277 -1.326259 3.59159 3.108126 7.85131 -8.61073 1.272256 19.83489 7.981309 4.34091 -27.55 9.74565 4.675829 -16.88249 10.28327 88.6102 35.51438 -23.70018 -0 0 10.80294 -6.518051 7.968456 3.683684 8.533792 -23.07197 -0.3123547 -91.09415 28.53245 17.59808 0 0 -25.86284 8.009165 14.69139 6.356781
2.643024 98.62651 29.96675 -2.664643 4.997691 3.28896 8.316354 -33.28988 4.640842 -0 12.43506 -0 -9.026539 -5.196304 -0.9852475 -4.856523 14.85445 -15.57137 -0 19.28203 -0 -3.011919 -20.78754 13.97164 -0.5270334 -1.281958 3.176068 3.039595 7.623671 -8.531359 1.241782 20.19752 7.900619 4.253619 -27.01414 9.553389 4.258551 -16.02441 9.96546 89.21765 35.08766 -23.86237 -0 0 9.241984 -7.094131 7.954617 3.873198 8.224342 -22.82455 -0.4663143 -90.43073 28.26597 16.29461 0 0 -25.07986 7.952121 14.38532 6.050045
2.833711 98.43784 35.70818 -2.743469 3.851683 3.459621 8.126302 -29.80728 3.991008 -0 12.76952 -0 -9.7846 -5.279151 -1.34096 -4.489705 14.44696 -14.41362 -0 27.43168 -0 -4.516675 -17.56007 12.67531 -0.008688284 -1.228372 2.828994 2.92618 7.630369 -8.358207 1.218112 20.70925 7.676545 4.026154 -26.12363 9.263018 3.919535 -15.23062 9.766817 89.75451 34.47553 -23.6719 -0 0 7.778278 -7.902562 8.188086 4.180721 7.58355 -22.33371 -0.7878996 -89.76522 27.4053 15.10215 0 0 -23.44605 8.135516 13.91271 5.324743
3.018711 98.81554 41.90978 -2.670035 2.227646 3.398971 8.048557 -25.05384 3.752901 -0 14.4412 -0 -10.33184 -5.650498 -1.800278 -4.087378 12.84466 -13.12815 -0 37.50065 -0 -5.488506 -13.46446 11.8524 0.4717701 -1.123947 2.734573 2.77018 8.00887 -8.118795 1.169637 21.22874 7.364329 3.750505 -25.03071 8.858811 3.827653 -14.72664 9.8195 90.1025 33.98045 -23.18867 -0 0 6.760945 -8.926229 8.825643 4.613131 6.661814 -21.76235 -1.235556 -89.36787 26.06685 14.60456 0 0 -21.30073 8.392717 13.29802 4.527477
3.206733 99.86718 48.27501 -2.468014 0.4968517 3.11999 8.071154 -19.61573 3.902867 -0 16.73344 -0 -10.65337 -5.994241 -2.07693 -3.633354 9.398922 -11.73236 -0 48.29481 -0 -5.90142 -9.188221 11.4918 0.8324191 -0.8938559 3.080985 2.55069 8.831825 -7.832532 1.058934 21.58604 7.080463 3.590382 -23.98114 8.341473 4.122225 -14.7441 10.22658 90.08296 34.03932 -22.46902 -0 0 6.568991 -10.20126 9.946223 5.216305 5.638148 -21.36468 -1.732854 -89.47346 24.5475 15.34092 0 0 -19.20338 8.511682 12.63624 4.118035
3.400873 101.4673 54.44645 -2.140018 -0.9449894 2.67823 8.018852 -14.1331 4.150987 -0 18.25346 -0 -10.79461 -6.102998 -1.899836 -3.077882 3.769575 -10.23142 -0 57.5167 -0 -5.796103 -5.685568 11.58894 0.9507999 -0.4674303 3.925666 2.237374 9.980682 -7.481105 0.8766644 21.70466 6.927273 3.669109 -23.18491 7.742574 4.740256 -15.3748 10.96706 89.51425 34.89105 -21.43836 -0 0 7.376525 -11.82783 11.37696 6.082556 4.797026 -21.33817 -2.184953 -90.08798 23.16185 17.31023 0 0 -17.68164 8.392912 12.0325 4.323048
